# xmcd
#
# Track frame offsets:
#	150
#	16410
#	32375
#	53440
#	69900
#	90025
#	112035
#	127690
#	142765
#	160300
#	177610
#	195445
#
# Disc length: 2858 seconds
#
# Revision: 1
# Processed by: cddbd v1.5.1PL0 Copyright (c) Steve Scherf et al.
# Submitted via: EasyCDDAExtractor 6.2.0.3
#
DISCID=850b280c
DTITLE=Blake Addison - The Unreachable
DYEAR=2004
DGENRE=Gospel
TTITLE0=I Wanna Know Your Love
TTITLE1=Forgiven
TTITLE2=God is in Control
TTITLE3=Speak to Me
TTITLE4=Reveal Yourself
TTITLE5=Father Forgive Them
TTITLE6=In Jesus' Name
TTITLE7=I am Broken
TTITLE8=A Safe Place to Land
TTITLE9=He is Always
TTITLE10=The Unreachable
TTITLE11=Come Lord Jesus
EXTD=
EXTT0=
EXTT1=
EXTT2=
EXTT3=
EXTT4=
EXTT5=
EXTT6=
EXTT7=
EXTT8=
EXTT9=
EXTT10=
EXTT11=
PLAYORDER=
